<?xml version="1.0" standalone="no"?><!DOCTYPE svg PUBLIC "-//W3C//DTD SVG 1.1//EN" "http://www.w3.org/Graphics/SVG/1.1/DTD/svg11.dtd"><svg t="1530579698006" class="icon" style="" viewBox="0 0 1024 1024" version="1.1" xmlns="http://www.w3.org/2000/svg" p-id="675" xmlns:xlink="http://www.w3.org/1999/xlink" width="32" height="32"><defs><style type="text/css"></style></defs><path d="M857.73910659 169.5920175c-9.20211595-34.34126207-31.2258304-63.04222126-62.01566239-80.81898355l-108.2257856-62.48395714c-63.55896066-36.69427269-145.12306318-14.84011351-181.81733606 48.71769394L171.1307022 654.46554611c-6.09821855 4.60567195-9.86995524 12.06263783-9.42703625 20.26933852l17.17005441 318.28616636c0.43369183 8.05214027 4.92171362 15.33609055 11.91961163 19.34658907 3.65639382 2.09694778 7.73725168 3.1488815 11.82272391 3.14888158 3.7348266 0 7.47426781-0.88007236 10.89651419-2.6448296L495.64773177 867.38990917c4.85365988-2.50295667 8.45814884-6.45462971 10.6081548-11.04530708l314.92505264-545.46585054c0.33449691-0.4902103 0.69090801-0.95735206 0.99310905-1.47870584 0.40254942-0.69667577 0.76357534-1.40719277 1.08769091-2.12578309l21.17939911-36.68389151C862.21905339 239.80053892 866.94006931 203.93212638 857.73910659 169.5920175zM598.80762442 58.92556045c22.07446625-5.91136132 45.12589259-2.88013115 64.914249 8.54581087l108.22578531 62.48395726c19.78950826 11.42478795 33.94332718 29.87169659 39.858149 51.94385527 5.91366876 22.07100571 2.87897699 45.12473963-8.54581081 64.91424884l-10.48358369 18.15854916L536.38018535 116.94110523l10.48358368-18.15854896C558.28855702 78.99420127 576.73661862 64.83922923 598.80762442 58.92556045zM512.60324711 158.12339974l256.39507461 148.02972336L494.98911956 780.75068555l-4.72101501-22.10330245c-2.38300005-11.15949682-12.24026674-18.8148552-23.22790253-18.81485516-1.5721333 0-3.16733664 0.15802079-4.76715309 0.48328955l-56.56106168 11.51014256-15.63944478-52.57132534c-3.51336783-11.80772909-15.4583553-18.97979582-27.53714087-16.51836278l-56.37074524 11.48476659-15.02350906-51.94039496c-1.77859872-6.14896909-5.9609589-11.31982518-11.59895661-14.34528854-5.64145799-3.03007707-12.26218245-3.65062614-18.36732159-1.73476895l-22.98568129 7.22166514L512.60324711 158.12339974zM210.2587259 692.03758412l41.95971032-13.18031799 14.35912997 49.64620975c3.44185456 11.90231081 15.43413234 19.16780592 27.5890456 16.6925316l56.53453274-11.51936954 15.63829054 52.56901809c3.51336783 11.80772909 15.4583553 18.9774894 27.53252738 16.51836287l54.81129931-11.15488341 8.9448998 41.88127634L224.37794082 953.76499582 210.2587259 692.03758412z" fill="#ffffff" p-id="676"></path></svg>