<?xml version="1.0" standalone="no"?><!DOCTYPE svg PUBLIC "-//W3C//DTD SVG 1.1//EN" "http://www.w3.org/Graphics/SVG/1.1/DTD/svg11.dtd"><svg t="1524649086916" class="icon" style="" viewBox="0 0 1024 1024" version="1.1" xmlns="http://www.w3.org/2000/svg" p-id="5348" xmlns:xlink="http://www.w3.org/1999/xlink" width="32" height="32"><defs><style type="text/css"></style></defs><path d="M512 691.2c99.84 0 179.2-79.36 179.2-179.2V256c0-99.84-79.36-179.2-179.2-179.2s-179.2 79.36-179.2 179.2v256c0 99.84 79.36 179.2 179.2 179.2z m-128-435.2c0-71.68 56.32-128 128-128s128 56.32 128 128v256c0 71.68-56.32 128-128 128s-128-56.32-128-128V256z m409.6 307.2h-51.2c-23.04 102.4-120.32 179.2-230.4 179.2s-207.36-76.8-230.4-179.2H230.4c23.04 122.88 130.56 217.6 256 230.4v51.2h-25.6c-15.36 0-25.6 10.24-25.6 25.6s10.24 25.6 25.6 25.6h102.4c15.36 0 25.6-10.24 25.6-25.6s-10.24-25.6-25.6-25.6h-25.6v-51.2c125.44-12.8 232.96-107.52 256-230.4z" p-id="5349" fill="#ffffff"></path></svg>