<svg id="图层_1" data-name="图层 1" xmlns="http://www.w3.org/2000/svg" viewBox="0 0 754.07 542.14"><defs><style>.cls-1{fill:#fff;}</style></defs><title>未标题-1</title><path class="cls-1" d="M181.51,368.18c15.29,18.66,30.07,35.47,43.43,53.34C239.61,441.14,258,453,282.43,456.66c18.22,2.73,36.12,7.57,54.2,11.33,34,7.07,58.07-12.73,57.8-47.55-.15-19-.54-38-.81-57,0-2.8,0-5.6,0-9.19H639.51c12.07-.06,18.72-5,18.72-14s-6.55-14-18.71-14q-121.1,0-242.18.1c-6.44,0-10.24-1.43-14.22-7.44-8.3-12.53-18.51-23.81-27.92-35.61-1.57-2-3.08-4-5.71-7.39h10.33q138.68,0,277.34-.05a47.08,47.08,0,0,0,10.81-1c7.11-1.68,10.42-6.95,10.08-13.83s-4.41-11.61-11.53-12.77a59.42,59.42,0,0,0-9.35-.35c-98.18,0-196.36-.44-294.52.44-15.34.14-23.41-6.07-30.1-18.49,18.3-19.28,36.58-38.86,55.25-58.06,8.1-8.33,18.87-10.57,30.12-10.57q156.25,0,312.5.05c27.39.05,43.59,16.72,43.61,44.06q.08,146.49,0,293c0,27.42-16.29,43.81-43.67,43.82q-320.7.08-641.39.1c-9.93,0-18.16-2.4-22.42-12.09s-.27-17.5,6.48-24.63Q115.84,439,178.49,372.47A46.1,46.1,0,0,0,181.51,368.18Zm369.16,78.13q-45.67,0-91.35,0c-10.84,0-17.3,5.19-17.45,13.67s6.46,14,17,14.34c1.82.06,3.65,0,5.47,0H602.53c13,0,26,.06,39,0,6.95-.05,12.93-2.17,15.6-9.32,3.69-9.88-3.27-18.59-15.16-18.64C611.56,446.22,581.11,446.31,550.67,446.31Z"/><path class="cls-1" d="M145.76,65.06,165.37,49c-3.83-4.74-7.32-8.92-10.66-13.23-8.09-10.42-7.44-23.6,1.44-30.78,9.78-7.91,21.92-6.34,30.89,4.57Q243.1,77.68,298.94,146c2.8,3.43,5.69,6.79,8.32,10.34,7,9.43,5.92,22.06-2.3,28.9-9.24,7.7-21.87,6.91-29.89-2.71-21-25.19-41.66-50.68-62.45-76-6.73-8.21-13.48-16.41-20.66-25.15L172.21,97.42c1.93,2.45,3.61,4.64,5.35,6.78q89.77,109.68,179.65,219.28c8.36,10.16,12.58,21.16,12.47,34.3-.17,21.61.28,43.22.33,64.83,0,16.7-10.49,25.35-27,22-22.42-4.56-44.79-9.35-67.17-14.13a42.78,42.78,0,0,1-24.79-15.18Q134.1,272.38,17.2,129.4C-18,86.07,3.5,25.72,57.7,14.82c24.47-4.92,45.94,2.48,63.09,20.67C129.51,44.73,137.23,54.9,145.76,65.06Z"/></svg>