<?xml version="1.0" standalone="no"?><!DOCTYPE svg PUBLIC "-//W3C//DTD SVG 1.1//EN" "http://www.w3.org/Graphics/SVG/1.1/DTD/svg11.dtd"><svg t="1527416787269" class="icon" style="" viewBox="0 0 1024 1024" version="1.1" xmlns="http://www.w3.org/2000/svg" p-id="1981" xmlns:xlink="http://www.w3.org/1999/xlink" width="32" height="32"><defs><style type="text/css"></style></defs><path d="M544.914286 775.314286c-7.314286 0-18.285714-3.657143-25.6-7.314286l-120.685715-106.057143H285.257143c-43.885714 0-76.8-32.914286-76.8-76.8v-164.571428c0-43.885714 32.914286-76.8 76.8-76.8H365.714286l135.314285-117.028572c14.628571-14.628571 36.571429-14.628571 54.857143-7.314286s29.257143 25.6 29.257143 43.885715v475.428571c0 14.628571-7.314286 29.257143-21.942857 32.914286-7.314286 3.657143-10.971429 3.657143-18.285714 3.657143zM405.942857 621.714286c3.657143 0 7.314286 0 10.971429 3.657143l128 113.371428h3.657143v-475.428571c0-7.314286-3.657143-10.971429-7.314286-10.971429-3.657143-3.657143-10.971429 0-14.628572 3.657143l-138.971428 120.685714c-3.657143 3.657143-7.314286 3.657143-10.971429 3.657143H285.257143c-21.942857 0-40.228571 18.285714-40.228572 40.228572V585.142857c0 21.942857 18.285714 40.228571 40.228572 40.228572h109.714286c3.657143 0 7.314286-3.657143 10.971428-3.657143zM669.257143 588.8c-7.314286 0-14.628571-3.657143-14.628572-10.971429-3.657143-7.314286 0-18.285714 7.314286-25.6 25.6-10.971429 40.228571-36.571429 40.228572-62.171428s-14.628571-51.2-40.228572-58.514286c-10.971429-3.657143-14.628571-14.628571-10.971428-21.942857 3.657143-10.971429 14.628571-14.628571 21.942857-10.971429 36.571429 14.628571 62.171429 51.2 62.171428 95.085715 0 36.571429-25.6 73.142857-62.171428 91.428571 3.657143 3.657143 0 3.657143-3.657143 3.657143z" fill="#bfbfbf" p-id="1982"></path><path d="M658.285714 691.2c-7.314286 0-14.628571-7.314286-18.285714-14.628571-3.657143-10.971429 3.657143-18.285714 14.628571-21.942858 76.8-14.628571 128-84.114286 128-160.914285 0-73.142857-54.857143-142.628571-128-160.914286-10.971429-3.657143-14.628571-10.971429-14.628571-21.942857s10.971429-14.628571 21.942857-14.628572c91.428571 25.6 157.257143 106.057143 157.257143 197.485715 0 95.085714-65.828571 175.542857-157.257143 197.485714H658.285714z" fill="#bfbfbf" p-id="1983"></path></svg>